<svg xmlns="http://www.w3.org/2000/svg" viewBox="0 0 345.18 345.18"><defs><style>.cls-1,.cls-2{fill:#23203f;stroke:#23203f;stroke-miterlimit:10;}.cls-1{stroke-width:6px;}.cls-2{stroke-width:0.25px;}</style></defs><title>Asset 2</title><g id="Layer_2" data-name="Layer 2"><g id="Layer_1-2" data-name="Layer 1"><path class="cls-1" d="M3,3H290.5a51.73,51.73,0,0,1,51.68,51.67V342.18H54.67A51.73,51.73,0,0,1,3,290.51ZM339.07,339.07V54.67A48.63,48.63,0,0,0,290.5,6.1H6.1V290.51a48.62,48.62,0,0,0,48.57,48.56Z"/><path class="cls-2" d="M149.11,72.69V81H102.72v29h39.84v8.32H102.72v26.92h47.67v8.32H92.9V72.69Z"/><path class="cls-2" d="M241.36,77.77a38.75,38.75,0,0,0-18.69-5.08h-28v45.77h9.69V81H221a31.47,31.47,0,0,1,11.45,2c13,5.2,17.18,18,17.18,30,0,12.6-4.09,24-15.54,29.35A31.23,31.23,0,0,1,221,145.25h-26.4v8.32h28a41,41,0,0,0,18.69-5.09c13-7.39,18.12-21.37,18.12-35.35S254.45,85.4,241.36,77.77Z"/><path class="cls-2" d="M196.07,272.49v-8.32h46.39v-29H202.62v-8.32h39.84V199.93H194.79v-8.32h57.49v80.88Z"/><path class="cls-2" d="M103.81,267.4a38.78,38.78,0,0,0,18.7,5.09h28V226.8h-9.7v37.36H124.14a31.34,31.34,0,0,1-11.45-2c-13-5.2-17.18-18-17.18-30,0-12.59,4.09-24,15.55-29.35a31.18,31.18,0,0,1,13.08-2.88h26.41v-8.32h-28a41.17,41.17,0,0,0-18.7,5.08c-13,7.4-18.11,21.38-18.11,35.36S90.72,259.78,103.81,267.4Z"/></g></g></svg>